<svg xmlns="http://www.w3.org/2000/svg" width="24" height="24" viewBox="0 0 24 24" fill="none">
  <path stroke="#ffffff" stroke-width="1" d="M23.953 11.953c-1.646 0-3.167-.312-4.614-.926a12.337 12.337 0 0 1-3.795-2.57 12.336 12.336 0 0 1-2.57-3.796 11.622 11.622 0 0 1-.926-4.614.047.047 0 0 0-.095 0c0 1.646-.321 3.167-.956 4.614a11.923 11.923 0 0 1-2.54 3.796 12.335 12.335 0 0 1-3.795 2.57 11.626 11.626 0 0 1-4.615.926.047.047 0 0 0 0 .095c1.646 0 3.167.321 4.615.956a11.927 11.927 0 0 1 3.795 2.54 11.923 11.923 0 0 1 2.54 3.796c.635 1.447.956 2.967.956 4.613a.047.047 0 0 0 .095 0c0-1.647.311-3.166.926-4.613a12.333 12.333 0 0 1 2.57-3.796 11.914 11.914 0 0 1 3.795-2.54 11.309 11.309 0 0 1 4.614-.956.047.047 0 1 0 0-.095Z"/>
</svg>
