<svg width="1400" height="420" viewBox="0 0 1400 420" fill="none" xmlns="http://www.w3.org/2000/svg">
  <path
    fill-rule="evenodd"
    clip-rule="evenodd"
    d="M112.207 60.923C77.917 61.617 47.233 79.172 28.929 108.18L1.806 151.163C-11.708 172.571 -12.604 199.782 -0.53 222.039L29.837 278.039C48.889 313.163 85.692 335 125.648 335H223.815C247.412 335 261.619 308.748 248.621 289.055L200.936 216.826C184.316 191.648 184.639 158.897 201.752 134.052L250.027 63.976C263.651 44.191 249.499 17.217 225.478 17.704L112.207 20V60.923Z"
    fill="#58BBB7"
  />
  <path
    fill-rule="evenodd"
    clip-rule="evenodd"
    d="M289.554 145.334C266.03 145.751 252.043 172.148 264.319 192.219L311.777 269.776C328.846 297.677 327.391 333.02 308.084 359.429L264.88 418.533C250.291 438.489 264.536 466 289.257 466H380.34C418.687 466 454.157 445.776 473.57 412.816L512.77 346.241C528.309 319.858 528.309 287.142 512.77 260.759L473.57 194.184C454.157 161.224 418.687 141 380.34 141H289.629L289.554 145.334Z"
    fill="#138F8A"
    transform="translate(0 -53)"
  />
  <text
    x="600"
    y="280"
    fill="#3F3F42"
    font-family="Arial Black, Alexandria, sans-serif"
    font-size="250"
    font-weight="900"
    letter-spacing="2"
  >
    SYNC
  </text>
</svg>
